<svg width="32" height="32" viewBox="0 0 32 32" fill="none" xmlns="http://www.w3.org/2000/svg">
<path d="M26.6667 2.66667H10.6667C9.196 2.66667 8 3.86267 8 5.33333V21.3333C8 22.804 9.196 24 10.6667 24H26.6667C28.1373 24 29.3333 22.804 29.3333 21.3333V5.33333C29.3333 3.86267 28.1373 2.66667 26.6667 2.66667ZM10.6667 21.3333V5.33333H26.6667L26.6693 21.3333H10.6667Z" fill="white"/>
<path d="M5.33333 10.6667H2.66667V26.6667C2.66667 28.1373 3.86267 29.3333 5.33333 29.3333H21.3333V26.6667H5.33333V10.6667ZM20 8H17.3333V12H13.3333V14.6667H17.3333V18.6667H20V14.6667H24V12H20V8Z" fill="white"/>
</svg>
