<svg width="24" height="24" viewBox="0 0 24 24" fill="none" xmlns="http://www.w3.org/2000/svg">
<path d="M4.42055 20.3999C4.25829 20.3999 4.09966 20.3518 3.96474 20.2617C3.82981 20.1716 3.72465 20.0434 3.66255 19.8935C3.60045 19.7436 3.5842 19.5787 3.61587 19.4195C3.64753 19.2604 3.72568 19.1142 3.84043 18.9995L18.9995 3.84039C19.1534 3.68653 19.3621 3.6001 19.5796 3.6001C19.7972 3.6001 20.0059 3.68653 20.1598 3.84039C20.3136 3.99424 20.4001 4.20292 20.4001 4.4205C20.4001 4.63809 20.3136 4.84676 20.1598 5.00062L5.00066 20.1597C4.92455 20.236 4.83412 20.2965 4.73457 20.3377C4.63501 20.3789 4.5283 20.4 4.42055 20.3999Z" fill="black"/>
<path d="M19.5796 20.3999C19.4719 20.4 19.3651 20.3789 19.2656 20.3377C19.166 20.2965 19.0756 20.236 18.9995 20.1597L3.84039 5.00062C3.68653 4.84676 3.6001 4.63809 3.6001 4.4205C3.6001 4.20292 3.68653 3.99424 3.84039 3.84039C3.99424 3.68653 4.20292 3.6001 4.4205 3.6001C4.63809 3.6001 4.84676 3.68653 5.00062 3.84039L20.1597 18.9995C20.2745 19.1142 20.3526 19.2604 20.3843 19.4195C20.4159 19.5787 20.3997 19.7436 20.3376 19.8935C20.2755 20.0434 20.1703 20.1716 20.0354 20.2617C19.9005 20.3518 19.7419 20.3999 19.5796 20.3999V20.3999Z" fill="black"/>
</svg>
